<svg xmlns="http://www.w3.org/2000/svg" viewBox="0 0 84 62.08"><defs><radialGradient id="A" cx="70.51" cy="-407.79" fx="56.29" fy="-467.761" r="148.6" gradientTransform="matrix(0.27, 0, 0, -0.27, 23.98, -69.82)" gradientUnits="userSpaceOnUse"><stop offset="0" stop-color="#0086c9"/><stop offset=".26" stop-color="#0182c6"/><stop offset=".52" stop-color="#0276bd"/><stop offset=".77" stop-color="#0563ad"/><stop offset=".99" stop-color="#084c9c"/></radialGradient><radialGradient id="B" cx="58.72" cy="-419.09" r="106.84" gradientTransform="matrix(0.32, 0, 0, -0.3, 26.42, -80.7)" gradientUnits="userSpaceOnUse"><stop offset=".28" stop-color="#0053a2"/><stop offset=".43" stop-color="#0057a5"/><stop offset=".56" stop-color="#0062af"/><stop offset=".69" stop-color="#0074bf"/><stop offset=".8" stop-color="#0089d1"/><stop offset="1" stop-color="#fff"/></radialGradient></defs><g transform="translate(-3 -13.96)"><path d="M45,14A31,31,0,1,1,13.93,45,31.11,31.11,0,0,1,45,14Z" fill-rule="evenodd" fill="url(#A)"/><path d="M73.52,41.07c0,14.82-12.66,26.82-28.28,26.82S17,55.88,17,41.07,29.63,14.24,45.24,14.24,73.52,26.25,73.52,41.07Z" opacity=".25" fill="url(#B)"/></g><path d="M82 18.79l-11.16 1.43.15.9a.19.19 0 0 0 .2.16 5.23 5.23 0 0 1 2.36.32c.76.46.39 2 .39 2l-4.45 13.44a7.17 7.17 0 0 0-.36 3 13.2 13.2 0 0 1-4.2 1.12 3.28 3.28 0 0 1-3.1-1.61 3 3 0 0 1-.28-2.23l5.21-17.23a.31.31 0 0 0-.22-.39h-7.45a.39.39 0 0 0-.36.23l-1.49 3.51a10.5 10.5 0 0 0-.82-1.15 7.11 7.11 0 0 0-2-1.68 12.9 12.9 0 0 0-5.23-1.57 23.71 23.71 0 0 0-7.79 1 20.78 20.78 0 0 0-8.4 4.4 14.6 14.6 0 0 0-3.94 6 12.51 12.51 0 0 0-.37 4c0 0-1.14 1.6-1.87 2.5s-1.83 2-2.52 2-.74-1.15-.53-2l4.29-17a.11.11 0 0 0-.06-.1l-7.64.08a.14.14 0 0 0-.13.1l-2 7.72a53.77 53.77 0 0 1-3 4.76l-3.3 3.83a4.58 4.58 0 0 1-2.42 1.54c-.6.07-1.19-.46-1-1.69.21-1 3.13-12.61 4-16.2l.11-.42a.44.44 0 0 0-.32-.54.29.29 0 0 0-.16 0L1 20.38l-.06.59a.44.44 0 0 0 .41.5 9.38 9.38 0 0 1 1.31.21c.94.23 1.11 1.76.85 2.92S.81 34.79.38 36.4s-.56 3.23 0 3.91a4.83 4.83 0 0 0 4.26 2.23c2.83.07 4.54-1.69 6.36-3.15a59.86 59.86 0 0 0 5.69-6.35c0 0-.79 3.14-1.05 4.83s.12 3.14.95 3.76a5.77 5.77 0 0 0 4.22.84 10.86 10.86 0 0 0 5.59-2.53 13.87 13.87 0 0 0 2.68-3.84 12.76 12.76 0 0 0 1.07 2 9 9 0 0 0 3.41 3.07 18.88 18.88 0 0 0 8.19 2.14 14.27 14.27 0 0 0 7.59-1.68 14.55 14.55 0 0 0 4.59-3.59 5.34 5.34 0 0 0 1 2.15 7.55 7.55 0 0 0 4 2.45 19.4 19.4 0 0 0 6.74.85 18.27 18.27 0 0 0 5.14-1.34 4.62 4.62 0 0 0 .93.34 6.91 6.91 0 0 0 3.73-.15 13 13 0 0 0 3.5-2.53 33 33 0 0 0 2.65-4 .16.16 0 0 0-.07-.23l-.56-.28a.23.23 0 0 0-.31.09c-.35.56-1.41 2.24-1.94 2.88s-1.14 1.07-1.92.53-.44-1.84-.44-1.84l5.82-18c-.06-.12-.11-.18-.2-.17zm-27.28 9a23.24 23.24 0 0 1-3.67 8.59 9.57 9.57 0 0 1-4.79 3.91 7.91 7.91 0 0 1-5.73-.25c-2.33-1-2.87-3-2.28-6.36a22.78 22.78 0 0 1 4-8.89c2-2.44 6.43-4.44 9.84-2.84 1.69.81 3.01 3.18 2.65 5.86zm25.97-17.12a4.25 4.25 0 0 0-4 3.47c-.19 1.79 1.29 3.14 3.29 3a4.23 4.23 0 0 0 4-3.47c.19-1.78-1.29-3.13-3.29-3z" fill="#ffd31a"/></svg>
